HIERARCHY
ROOT Hips
{
	OFFSET 0.000000 0.000000 0.000000
	CHANNELS 6 Xposition Yposition Zposition Zrotation Yrotation Xrotation 
	JOINT LowerBack
	{
		OFFSET 0.000000 0.000000 0.000000
		CHANNELS 3 Zrotation Yrotation Xrotation
		JOINT Spine
		{
			OFFSET 0.028270 2.035590 -0.193380
			CHANNELS 3 Zrotation Yrotation Xrotation
			JOINT Spine1
			{
				OFFSET 0.056720 2.048850 -0.042750
				CHANNELS 3 Zrotation Yrotation Xrotation
				JOINT Neck
				{
					OFFSET 0.000000 0.000000 0.000000
					CHANNELS 3 Zrotation Yrotation Xrotation
					JOINT Neck1
					{
						OFFSET -0.054170 1.746240 0.172020
						CHANNELS 3 Zrotation Yrotation Xrotation
						JOINT Head
						{
							OFFSET 0.104070 1.761360 -0.123970
							CHANNELS 3 Zrotation Yrotation Xrotation
							End Site
							{
								OFFSET 0.000000 0.000000 0.000000
							}
						}
					}
				}
				JOINT LeftShoulder
				{
					OFFSET 0.000000 0.000000 0.000000
					CHANNELS 3 Zrotation Yrotation Xrotation
					JOINT LeftArm
					{
						OFFSET 3.362410 1.200890 -0.311210
						CHANNELS 3 Zrotation Yrotation Xrotation
						JOINT LeftForeArm
						{
							OFFSET 4.983000 -0.000000 -0.000000
							CHANNELS 3 Zrotation Yrotation Xrotation
							JOINT LeftHand
							{
								OFFSET 3.483560 -0.000000 -0.000000
								CHANNELS 3 Zrotation Yrotation Xrotation
								JOINT LeftFingerBase
								{
									OFFSET 0.000000 0.000000 0.000000
									CHANNELS 3 Zrotation Yrotation Xrotation
									JOINT LeftHandIndex1
									{
										OFFSET 0.715260 -0.000000 -0.000000
										CHANNELS 3 Zrotation Yrotation Xrotation
										End Site
										{
											OFFSET 0.000000 0.000000 0.000000
										}
									}
								}
								JOINT LThumb
								{
									OFFSET 0.000000 0.000000 0.000000
									CHANNELS 3 Zrotation Yrotation Xrotation
									End Site
									{
										OFFSET 0.000000 0.000000 0.000000
									}
								}
							}
						}
					}
				}
				JOINT RightShoulder
				{
					OFFSET 0.000000 0.000000 0.000000
					CHANNELS 3 Zrotation Yrotation Xrotation
					JOINT RightArm
					{
						OFFSET -3.136600 1.374050 -0.404650
						CHANNELS 3 Zrotation Yrotation Xrotation
						JOINT RightForeArm
						{
							OFFSET -5.241900 -0.000000 -0.000000
							CHANNELS 3 Zrotation Yrotation Xrotation
							JOINT RightHand
							{
								OFFSET -3.444170 -0.000000 -0.000000
								CHANNELS 3 Zrotation Yrotation Xrotation
								JOINT RightFingerBase
								{
									OFFSET 0.000000 0.000000 0.000000
									CHANNELS 3 Zrotation Yrotation Xrotation
									JOINT RightHandIndex1
									{
										OFFSET -0.622530 -0.000000 -0.000000
										CHANNELS 3 Zrotation Yrotation Xrotation
										End Site
										{
											OFFSET 0.000000 0.000000 0.000000
										}
									}
								}
								JOINT RThumb
								{
									OFFSET 0.000000 0.000000 0.000000
									CHANNELS 3 Zrotation Yrotation Xrotation
									End Site
									{
										OFFSET 0.000000 0.000000 0.000000
									}
								}
							}
						}
					}
				}
			}
		}
	}
}
}
MOTION
Frames: 16
Frame Time: 0.008333
-1.633617 16.957351 -0.075103 12.599710 76.309545 32.799655 -6.697083 2.203653 4.471581 -2.576153 2.539901 -2.196885 -7.239566 2.441293 0.429293 9.026726 7.972605 5.278475 -4.645852 -0.430066 2.929548 0.000000 0.000000 0.000000 -8.770690 3.218306 1.428305 -61.963812 -6.842617 13.334696 -3.696959 -19.726862 -0.002192 1.692343 2.133984 0.033282 -0.077796 -0.004761 0.000000 0.000000 0.000000 0.000000 0.000000 0.000000 0.000000 18.712058 8.076939 -1.552165 79.521921 24.240826 7.916196 2.543236 22.354421 0.005495 -0.038010 10.512379 -0.005628 0.026623 -0.145124 0.000000 0.000000 0.000000 0.000000 0.000000 0.000000 0.000000 
-1.528912 16.977306 -0.084567 11.168981 75.370373 31.314847 -6.689057 2.200315 4.698251 -2.570591 2.537918 -2.153090 -7.224295 2.438005 0.400828 8.617525 8.294366 5.450852 -4.648365 -0.430731 2.965856 0.000000 0.000000 0.000000 -8.821718 2.831052 1.463859 -62.169654 -7.332125 13.272400 -3.724079 -18.375296 -0.002577 1.521790 2.364083 0.033269 -0.075861 -0.000560 0.000000 0.000000 0.000000 0.000000 0.000000 0.000000 0.000000 18.308878 8.279745 -1.537687 79.849794 23.947848 6.970816 2.566191 21.180745 0.005637 -0.215095 10.323999 -0.022036 0.030340 -0.140013 0.000000 0.000000 0.000000 0.000000 0.000000 0.000000 0.000000 
-1.424889 16.996947 -0.096290 9.804497 74.478471 29.869292 -6.613827 2.180978 4.935136 -2.552564 2.517823 -2.102191 -7.215506 2.417495 0.385008 8.214191 8.574948 5.620618 -4.659247 -0.431578 3.001110 0.000000 0.000000 0.000000 -8.846421 2.442641 1.496225 -62.396413 -7.847156 13.254374 -3.744140 -17.068659 -0.002924 1.378958 2.590428 0.033059 -0.074006 0.003987 0.000000 0.000000 0.000000 0.000000 0.000000 0.000000 0.000000 17.943263 8.424256 -1.523036 80.089015 23.656957 6.228572 2.596817 20.131619 0.005907 -0.305744 10.071784 -0.029945 0.033802 -0.134234 0.000000 0.000000 0.000000 0.000000 0.000000 0.000000 0.000000 
-1.321064 17.016081 -0.109340 8.549494 73.642365 28.509489 -6.491940 2.142555 5.175458 -2.526613 2.477495 -2.045864 -7.215041 2.377589 0.381597 7.834301 8.805480 5.786913 -4.679722 -0.432667 3.035078 0.000000 0.000000 0.000000 -8.838037 2.047824 1.525436 -62.629794 -8.373833 13.283230 -3.757297 -15.837490 -0.003237 1.275034 2.811876 0.033251 -0.072243 0.008735 0.000000 0.000000 0.000000 0.000000 0.000000 0.000000 0.000000 17.637981 8.499994 -1.508147 80.236490 23.361881 5.707549 2.635133 19.220928 0.006277 -0.284653 9.754504 -0.027353 0.036707 -0.127714 0.000000 0.000000 0.000000 0.000000 0.000000 0.000000 0.000000 
-1.217123 17.034712 -0.122788 7.430783 72.868190 27.266886 -6.342556 2.082905 5.413159 -2.496798 2.415603 -1.985155 -7.224073 2.316983 0.392328 7.491653 8.980805 5.946368 -4.709849 -0.433963 3.066867 0.000000 0.000000 0.000000 -8.796428 1.659165 1.551203 -62.853748 -8.922829 13.384782 -3.764705 -14.698055 -0.003524 1.218743 3.024330 0.034145 -0.070647 0.013589 0.000000 0.000000 0.000000 0.000000 0.000000 0.000000 0.000000 17.406937 8.501617 -1.494664 80.294156 23.058287 5.404780 2.680430 18.458950 0.006709 -0.134477 9.376988 -0.013962 0.038796 -0.120422 0.000000 0.000000 0.000000 0.000000 0.000000 0.000000 0.000000 
-1.112998 17.052946 -0.135837 6.465703 72.160088 26.163184 -6.182683 2.002291 5.642281 -2.466502 2.333027 -1.922564 -7.242081 2.236401 0.413206 7.195898 9.092825 6.101288 -4.749443 -0.435523 3.097372 0.000000 0.000000 0.000000 -8.718056 1.246961 1.573884 -63.056778 -9.455494 13.533421 -3.766262 -13.687466 -0.003791 1.216246 3.223893 0.036244 -0.069157 0.018350 0.000000 0.000000 0.000000 0.000000 0.000000 0.000000 0.000000 17.258925 8.420474 -1.480206 80.264004 22.746455 5.322790 2.731338 17.841590 0.007145 0.144165 8.955635 0.008627 0.039947 -0.112460 -0.000000 0.000000 0.000000 0.000000 0.000000 0.000000 0.000000 
-1.008779 17.071024 -0.147891 5.657222 71.517519 25.207294 -6.024697 1.900683 5.860386 -2.437942 2.230129 -1.857220 -7.269036 2.136439 0.450777 6.952323 9.155955 6.242837 -4.795344 -0.437066 3.124123 0.000000 0.000000 0.000000 -8.620362 0.881204 1.593257 -63.216587 -10.053647 13.821762 -3.766165 -12.784766 -0.004070 1.262636 3.408970 0.039544 -0.068080 0.023124 0.000000 0.000000 0.000000 0.000000 0.000000 0.000000 0.000000 17.185503 8.275941 -1.471641 80.155636 22.413070 5.390499 2.785355 17.390903 0.007526 0.556562 8.498280 0.039216 0.039942 -0.103894 -0.000000 0.000000 0.000000 0.000000 0.000000 0.000000 0.000000 
-0.904707 17.089152 -0.158532 4.998809 70.937914 24.396590 -5.877311 1.781904 6.063649 -2.412499 2.110935 -1.792290 -7.302521 2.020834 0.496620 6.760897 9.162229 6.376538 -4.846618 -0.438686 3.149119 0.000000 0.000000 0.000000 -8.500643 0.504250 1.610164 -63.328842 -10.648154 14.183228 -3.763446 -12.032789 -0.004352 1.358364 3.571709 0.044347 -0.067266 0.027659 0.000000 0.000000 0.000000 0.000000 0.000000 0.000000 0.000000 17.182964 8.060915 -1.463593 79.972255 22.064811 5.608794 2.840112 17.087741 0.007802 1.070564 8.037105 0.073703 0.038931 -0.095046 -0.000000 0.000000 0.000000 0.000000 0.000000 0.000000 0.000000 
-0.801139 17.107608 -0.167578 4.475064 70.414738 23.719128 -5.744286 1.649840 6.251027 -2.390416 1.979354 -1.729071 -7.340329 1.893382 0.547381 6.617853 9.116924 6.502244 -4.900778 -0.440305 3.172630 0.000000 0.000000 0.000000 -8.366329 0.110609 1.625413 -63.385091 -11.232384 14.603137 -3.759387 -11.442351 -0.004647 1.496893 3.707243 0.050451 -0.066752 0.031885 0.000000 0.000000 0.000000 0.000000 0.000000 0.000000 0.000000 17.237247 7.785058 -1.455408 79.720719 21.700058 5.941770 2.892615 16.926961 0.007940 1.653013 7.599783 0.108889 0.037058 -0.086248 -0.000000 0.000000 0.000000 0.000000 0.000000 0.000000 0.000000 
-0.698442 17.126599 -0.175082 4.063233 69.937916 23.155200 -5.625353 1.509088 6.423218 -2.371103 1.839890 -1.668440 -7.380171 1.758467 0.599837 6.515814 9.027643 6.619331 -4.955204 -0.441832 3.194751 0.000000 0.000000 0.000000 -8.226789 -0.300553 1.639868 -63.379049 -11.805303 15.067419 -3.755129 -11.016749 -0.004952 1.671083 3.808019 0.057457 -0.066576 0.035753 0.000000 0.000000 0.000000 0.000000 0.000000 0.000000 0.000000 17.330445 7.461310 -1.446648 79.408540 21.317845 6.351221 2.939887 16.901802 0.007933 2.264029 7.214048 0.142374 0.034544 -0.077867 -0.000000 0.000000 0.000000 0.000000 0.000000 0.000000 0.000000 
-0.596976 17.146256 -0.181254 3.736367 69.495419 22.680108 -5.516656 1.364106 6.582590 -2.353297 1.696822 -1.610288 -7.420223 1.620325 0.653148 6.445381 8.903803 6.724418 -5.007259 -0.443138 3.214712 0.000000 0.000000 0.000000 -8.093892 -0.711403 1.654088 -63.305128 -12.386678 15.581472 -3.752215 -10.746473 -0.005261 1.871641 3.866139 0.065063 -0.066830 0.039264 0.000000 0.000000 0.000000 0.000000 0.000000 0.000000 0.000000 17.442894 7.105285 -1.438417 79.044278 20.917899 6.796352 2.979208 17.004641 0.007799 2.860973 6.905052 0.172759 0.031659 -0.070254 -0.000000 0.000000 0.000000 0.000000 0.000000 0.000000 0.000000 
-0.497029 17.166662 -0.186407 3.466610 69.073923 22.266582 -5.412728 1.219874 6.731382 -2.335459 1.554922 -1.555433 -7.458486 1.483525 0.702858 6.396184 8.752048 6.818221 -5.055097 -0.444196 3.232929 0.000000 0.000000 0.000000 -7.972967 -1.132382 1.669162 -63.163456 -12.963521 16.107782 -3.750895 -10.632561 -0.005560 2.092494 3.873558 0.072472 -0.067487 0.042373 0.000000 0.000000 0.000000 0.000000 0.000000 0.000000 0.000000 17.557464 6.728993 -1.429006 78.634427 20.502280 7.252248 3.008374 17.220481 0.007586 3.399350 6.695446 0.199344 0.028706 -0.063755 -0.000000 0.000000 0.000000 0.000000 0.000000 0.000000 0.000000 
-0.398842 17.187812 -0.190903 3.227301 68.660928 21.887469 -5.306784 1.080618 6.872153 -2.315842 1.418183 -1.504492 -7.493337 1.351854 0.744986 6.358377 8.582984 6.902018 -5.096856 -0.444966 3.249903 0.000000 0.000000 0.000000 -7.868219 -1.567564 1.686276 -62.955952 -13.528142 16.612851 -3.751373 -10.669862 -0.005834 2.328863 3.823361 0.079382 -0.068525 0.045067 0.000000 0.000000 0.000000 0.000000 0.000000 0.000000 0.000000 17.657429 6.348352 -1.417269 78.186452 20.069662 7.686033 3.025975 17.534414 0.007345 3.843311 6.599459 0.222430 0.025946 -0.058641 -0.000000 0.000000 0.000000 0.000000 0.000000 0.000000 0.000000 
-0.302513 17.209630 -0.195104 2.995382 68.243564 21.519690 -5.192643 0.948954 7.008847 -2.293156 1.289064 -1.456132 -7.524906 1.227810 0.781887 6.323396 8.400214 6.970224 -5.132106 -0.445391 3.264000 0.000000 0.000000 0.000000 -7.787482 -1.989965 1.705401 -62.681852 -14.108022 17.104305 -3.754537 -10.841104 -0.006070 2.574975 3.711904 0.084895 -0.070014 0.047401 0.000000 0.000000 0.000000 0.000000 0.000000 0.000000 0.000000 17.733894 5.971141 -1.404704 77.707038 19.629828 8.086083 3.031400 17.930691 0.007128 4.165580 6.619296 0.241921 0.023602 -0.055005 -0.000000 0.000000 0.000000 0.000000 0.000000 0.000000 0.000000 
-0.208045 17.232034 -0.199274 2.754305 67.813677 21.144954 -5.065377 0.827499 7.143108 -2.266326 1.170040 -1.410564 -7.552712 1.113732 0.811735 6.285349 8.209800 7.024104 -5.160308 -0.445484 3.275570 0.000000 0.000000 0.000000 -7.730000 -2.402154 1.727024 -62.346571 -14.697804 17.551396 -3.760210 -11.134576 -0.006255 2.828574 3.538112 0.088609 -0.071911 0.049401 0.000000 0.000000 0.000000 0.000000 0.000000 0.000000 0.000000 17.779410 5.606253 -1.390349 77.202030 19.186246 8.436104 3.025058 18.388357 0.006978 4.349321 6.754192 0.257714 0.021843 -0.052910 -0.000000 0.000000 0.000000 0.000000 0.000000 0.000000 0.000000 
-0.115359 17.254845 -0.203576 2.495549 67.364662 20.753410 -4.922675 0.716854 7.277543 -2.235232 1.061712 -1.365569 -7.578187 1.010444 0.841013 6.240209 7.999016 7.055044 -5.183426 -0.445271 3.282015 0.000000 0.000000 0.000000 -7.697457 -2.778245 1.749424 -61.952594 -15.327079 17.963375 -3.768813 -11.528903 -0.006379 3.086514 3.304455 0.090126 -0.074262 0.051139 0.000000 0.000000 0.000000 0.000000 0.000000 0.000000 0.000000 17.799325 5.240902 -1.375660 76.674006 18.765971 8.768929 3.008146 18.878864 0.006918 4.382812 6.995677 0.269011 0.020844 -0.052226 -0.000000 0.000000 0.000000 0.000000 0.000000 0.000000 0.000000 
